<svg xmlns="http://www.w3.org/2000/svg" viewBox="0 0 160 160">
  <defs>
    <linearGradient id="g" x1="0%" y1="0%" x2="100%" y2="100%">
      <stop offset="0%" stop-color="#f6b73c"/>
      <stop offset="100%" stop-color="#f07b3f"/>
    </linearGradient>
  </defs>
  <circle cx="80" cy="80" r="70" fill="url(#g)" opacity="0.08"/>
  <path d="M80 36c-10 0-18 8-18 18 0 7 4 12 10 15v8l-18 13c-4 3-7 9-7 14l4 20h58l4-20c0-5-3-11-7-14l-18-13v-8c6-3 10-8 10-15 0-10-8-18-18-18Z" fill="url(#g)" opacity="0.9"/>
  <path d="M56 118c-12 6-18 14-18 20h84c0-6-6-14-18-20" fill="none" stroke="#f07b3f" stroke-width="3" stroke-linecap="round" opacity="0.8"/>
  <path d="M72 46c0-4 3-8 8-8s8 4 8 8" fill="none" stroke="#f07b3f" stroke-width="3" stroke-linecap="round" opacity="0.8"/>
  <circle cx="80" cy="30" r="7" fill="url(#g)"/>
</svg>
